SplineFontDB: 3.2
FontName: UnicodiaEgypFixupRegular
FullName: UnicodiaEgypFixupRegular
FamilyName: UnicodiaEgypFixup
Weight: Regular
Copyright: Copyright 2022 The Noto Project Authors (https://github.com/notofonts/egyptian-hieroglyphs)
Version: 2.1
ItalicAngle: 0
UnderlinePosition: -100
UnderlineWidth: 50
Ascent: 800
Descent: 200
InvalidEm: 1
UFOAscent: 1001
UFODescent: -138
LayerCount: 2
Layer: 0 1 "+BBcEMAQ0BD0EOAQ5 +BD8EOwQwBD0A" 1
Layer: 1 1 "public.default" 0 "glyphs"
StyleMap: 0x0040
FSType: 0
OS2Version: 0
OS2_WeightWidthSlopeOnly: 0
OS2_UseTypoMetrics: 0
CreationTime: 1698529057
ModificationTime: 1708443971
PfmFamily: 17
TTFWeight: 400
TTFWidth: 5
LineGap: 0
VLineGap: 0
Panose: 2 11 5 2 4 5 4 2 2 4
OS2TypoAscent: 1324
OS2TypoAOffset: 0
OS2TypoDescent: -326
OS2TypoDOffset: 0
OS2TypoLinegap: 0
OS2WinAscent: 1324
OS2WinAOffset: 0
OS2WinDescent: 326
OS2WinDOffset: 0
HheadAscent: 1324
HheadAOffset: 0
HheadDescent: -326
HheadDOffset: 0
OS2CapHeight: 900
OS2XHeight: 536
OS2Vendor: 'GOOG'
OS2CodePages: 00000001.00000000
OS2UnicodeRanges: 80000003.02002000.00000000.00000000
MarkAttachClasses: 1
DEI: 91125
ShortTable: maxp 16
  0
  0
  0
  0
  0
  0
  0
  2
  1
  2
  22
  0
  256
  0
  0
  0
EndShort
TtTable: prep
PUSHW_1
 511
SCANCTRL
PUSHB_1
 1
SCANTYPE
SVTCA[y-axis]
MPPEM
PUSHB_1
 8
LT
IF
PUSHB_2
 1
 1
INSTCTRL
EIF
PUSHB_2
 70
 6
CALL
IF
POP
PUSHB_1
 16
EIF
MPPEM
PUSHB_1
 20
GT
IF
POP
PUSHB_1
 128
EIF
SCVTCI
PUSHB_1
 6
CALL
NOT
IF
SVTCA[y-axis]
PUSHB_1
 5
DUP
RCVT
PUSHB_1
 3
CALL
WCVTP
PUSHB_1
 6
DUP
RCVT
PUSHB_3
 5
 30
 2
CALL
PUSHB_1
 3
CALL
WCVTP
SVTCA[x-axis]
PUSHB_1
 7
DUP
RCVT
PUSHB_1
 3
CALL
WCVTP
EIF
PUSHB_1
 20
CALL
EndTTInstrs
TtTable: fpgm
PUSHB_1
 0
FDEF
PUSHB_1
 0
SZP0
MPPEM
PUSHB_1
 42
LT
IF
PUSHB_1
 74
SROUND
EIF
PUSHB_1
 0
SWAP
MIAP[rnd]
RTG
PUSHB_1
 6
CALL
IF
RTDG
EIF
MPPEM
PUSHB_1
 42
LT
IF
RDTG
EIF
DUP
MDRP[rp0,rnd,grey]
PUSHB_1
 1
SZP0
MDAP[no-rnd]
RTG
ENDF
PUSHB_1
 1
FDEF
DUP
MDRP[rp0,min,white]
PUSHB_1
 12
CALL
ENDF
PUSHB_1
 2
FDEF
MPPEM
GT

StartChar: .notdef
Encoding: 1114112 -1 0
GlifName: _notdef
Width: 600
VWidth: 0
Flags: W
LayerCount: 2
Fore
SplineSet
94 0 m 257,0,-1
 505 0 l 257,1,-1
 505 714 l 257,2,-1
 94 714 l 257,3,-1
 94 0 l 257,0,-1
145 51 m 257,4,-1
 145 663 l 257,5,-1
 454 663 l 257,6,-1
 454 51 l 257,7,-1
 145 51 l 257,4,-1
EndSplineSet
EndChar

StartChar: u133FA
Encoding: 78842 78842 3
GlifName: u133F_A_
Width: 117
VWidth: 0
Flags: W
HStem: 0 21G<49 68>
VStem: 49 19<0 416>
LayerCount: 2
Fore
SplineSet
49 0 m 257,0,-1
 49 416 l 257,1,-1
 68 416 l 257,2,-1
 68 0 l 257,3,-1
 49 0 l 257,0,-1
EndSplineSet
EndChar

StartChar: u133FB
Encoding: 78843 78843 4
GlifName: u133F_B_
Width: 274
VWidth: 0
Flags: W
HStem: 0 21G<49 68 206 225>
VStem: 49 19<0 416> 206 19<0 416>
LayerCount: 2
Fore
SplineSet
206 0 m 257,0,-1
 206 416 l 257,1,-1
 225 416 l 257,2,-1
 225 0 l 257,3,-1
 206 0 l 257,0,-1
49 0 m 257,4,-1
 49 416 l 257,5,-1
 68 416 l 257,6,-1
 68 0 l 257,7,-1
 49 0 l 257,4,-1
EndSplineSet
EndChar

StartChar: u133FC
Encoding: 78844 78844 5
GlifName: u133F_C_
Width: 431
VWidth: 0
Flags: W
HStem: 0 21G<49 68 206 225 362 382>
VStem: 49 19<0 416> 206 19<0 416> 362 20<0 416>
LayerCount: 2
Fore
SplineSet
362 0 m 257,0,-1
 362 416 l 257,1,-1
 382 416 l 257,2,-1
 382 0 l 257,3,-1
 362 0 l 257,0,-1
49 0 m 257,4,-1
 49 416 l 257,5,-1
 68 416 l 257,6,-1
 68 0 l 257,7,-1
 49 0 l 257,4,-1
206 0 m 257,8,-1
 206 416 l 257,9,-1
 225 416 l 257,10,-1
 225 0 l 257,11,-1
 206 0 l 257,8,-1
EndSplineSet
EndChar

StartChar: u133FD
Encoding: 78845 78845 6
GlifName: u133F_D_
Width: 587
VWidth: 0
Flags: W
HStem: 0 21G<49 68 206 225 362 382 519 539>
VStem: 49 19<0 416> 206 19<0 416> 362 20<0 416> 519 20<0 416>
LayerCount: 2
Fore
SplineSet
519 0 m 257,0,-1
 519 416 l 257,1,-1
 539 416 l 257,2,-1
 539 0 l 257,3,-1
 519 0 l 257,0,-1
49 0 m 257,4,-1
 49 416 l 257,5,-1
 68 416 l 257,6,-1
 68 0 l 257,7,-1
 49 0 l 257,4,-1
206 0 m 257,8,-1
 206 416 l 257,9,-1
 225 416 l 257,10,-1
 225 0 l 257,11,-1
 206 0 l 257,8,-1
362 0 m 257,12,-1
 362 416 l 257,13,-1
 382 416 l 257,14,-1
 382 0 l 257,15,-1
 362 0 l 257,12,-1
EndSplineSet
EndChar

StartChar: u133FE
Encoding: 78846 78846 7
GlifName: u133F_E_
Width: 431
VWidth: 0
Flags: W
HStem: 0 21G<128 147 285 304>
VStem: 49 19<527 943> 128 19<0 416> 206 19<527 943> 285 19<0 416> 362 20<527 943>
LayerCount: 2
Fore
SplineSet
362 527 m 257,0,-1
 362 943 l 257,1,-1
 382 943 l 257,2,-1
 382 527 l 257,3,-1
 362 527 l 257,0,-1
128 0 m 257,4,-1
 128 416 l 257,5,-1
 147 416 l 257,6,-1
 147 0 l 257,7,-1
 128 0 l 257,4,-1
285 0 m 257,8,-1
 285 416 l 257,9,-1
 304 416 l 257,10,-1
 304 0 l 257,11,-1
 285 0 l 257,8,-1
49 527 m 257,12,-1
 49 943 l 257,13,-1
 68 943 l 257,14,-1
 68 527 l 257,15,-1
 49 527 l 257,12,-1
206 527 m 257,16,-1
 206 943 l 257,17,-1
 225 943 l 257,18,-1
 225 527 l 257,19,-1
 206 527 l 257,16,-1
EndSplineSet
EndChar

StartChar: u133FF
Encoding: 78847 78847 8
GlifName: u133F_F_
Width: 431
VWidth: 0
Flags: W
HStem: 0 21G<49 68 206 225 362 382>
VStem: 49 19<0 416 527 943> 206 19<0 416 527 943> 362 20<0 416 527 943>
LayerCount: 2
Fore
SplineSet
362 527 m 257,0,-1
 362 943 l 257,1,-1
 382 943 l 257,2,-1
 382 527 l 257,3,-1
 362 527 l 257,0,-1
49 0 m 257,4,-1
 49 416 l 257,5,-1
 68 416 l 257,6,-1
 68 0 l 257,7,-1
 49 0 l 257,4,-1
206 0 m 257,8,-1
 206 416 l 257,9,-1
 225 416 l 257,10,-1
 225 0 l 257,11,-1
 206 0 l 257,8,-1
362 0 m 257,12,-1
 362 416 l 257,13,-1
 382 416 l 257,14,-1
 382 0 l 257,15,-1
 362 0 l 257,12,-1
49 527 m 257,16,-1
 49 943 l 257,17,-1
 68 943 l 257,18,-1
 68 527 l 257,19,-1
 49 527 l 257,16,-1
206 527 m 257,20,-1
 206 943 l 257,21,-1
 225 943 l 257,22,-1
 225 527 l 257,23,-1
 206 527 l 257,20,-1
EndSplineSet
EndChar

StartChar: u13400
Encoding: 78848 78848 9
GlifName: u13400
Width: 587
VWidth: 0
Flags: W
HStem: 0 21G<127 146 284 303 440 460>
VStem: 49 19<527 943> 127 19<0 416> 206 19<527 943> 284 19<0 416> 362 20<527 943> 440 20<0 416> 519 20<527 943>
LayerCount: 2
Fore
SplineSet
519 527 m 257,0,-1
 519 943 l 257,1,-1
 539 943 l 257,2,-1
 539 527 l 257,3,-1
 519 527 l 257,0,-1
127 0 m 257,4,-1
 127 416 l 257,5,-1
 146 416 l 257,6,-1
 146 0 l 257,7,-1
 127 0 l 257,4,-1
284 0 m 257,8,-1
 284 416 l 257,9,-1
 303 416 l 257,10,-1
 303 0 l 257,11,-1
 284 0 l 257,8,-1
440 0 m 257,12,-1
 440 416 l 257,13,-1
 460 416 l 257,14,-1
 460 0 l 257,15,-1
 440 0 l 257,12,-1
49 527 m 257,16,-1
 49 943 l 257,17,-1
 68 943 l 257,18,-1
 68 527 l 257,19,-1
 49 527 l 257,16,-1
206 527 m 257,20,-1
 206 943 l 257,21,-1
 225 943 l 257,22,-1
 225 527 l 257,23,-1
 206 527 l 257,20,-1
362 527 m 257,24,-1
 362 943 l 257,25,-1
 382 943 l 257,26,-1
 382 527 l 257,27,-1
 362 527 l 257,24,-1
EndSplineSet
EndChar

StartChar: u13401
Encoding: 78849 78849 10
GlifName: u13401
Width: 587
VWidth: 0
Flags: W
HStem: 0 21G<49 68 206 225 362 382 519 539>
VStem: 49 19<0 416 527 943> 206 19<0 416 527 943> 362 20<0 416 527 943> 519 20<0 416 527 943>
LayerCount: 2
Fore
SplineSet
519 527 m 257,0,-1
 519 943 l 257,1,-1
 539 943 l 257,2,-1
 539 527 l 257,3,-1
 519 527 l 257,0,-1
49 0 m 257,4,-1
 49 416 l 257,5,-1
 68 416 l 257,6,-1
 68 0 l 257,7,-1
 49 0 l 257,4,-1
206 0 m 257,8,-1
 206 416 l 257,9,-1
 225 416 l 257,10,-1
 225 0 l 257,11,-1
 206 0 l 257,8,-1
362 0 m 257,12,-1
 362 416 l 257,13,-1
 382 416 l 257,14,-1
 382 0 l 257,15,-1
 362 0 l 257,12,-1
519 0 m 257,16,-1
 519 416 l 257,17,-1
 539 416 l 257,18,-1
 539 0 l 257,19,-1
 519 0 l 257,16,-1
49 527 m 257,20,-1
 49 943 l 257,21,-1
 68 943 l 257,22,-1
 68 527 l 257,23,-1
 49 527 l 257,20,-1
206 527 m 257,24,-1
 206 943 l 257,25,-1
 225 943 l 257,26,-1
 225 527 l 257,27,-1
 206 527 l 257,24,-1
362 527 m 257,28,-1
 362 943 l 257,29,-1
 382 943 l 257,30,-1
 382 527 l 257,31,-1
 362 527 l 257,28,-1
EndSplineSet
EndChar

StartChar: u13402
Encoding: 78850 78850 11
GlifName: u13402
Width: 431
VWidth: 0
Flags: W
HStem: 982 20G<49 68 206 225 362 382>
VStem: 49 19<-34 260 337 631 708 1002> 206 19<-34 260 337 631 708 1002> 362 20<-34 260 337 631 708 1002>
LayerCount: 2
Fore
SplineSet
362 708 m 257,0,-1
 362 1002 l 257,1,-1
 382 1002 l 257,2,-1
 382 708 l 257,3,-1
 362 708 l 257,0,-1
49 -34 m 257,4,-1
 49 260 l 257,5,-1
 68 260 l 257,6,-1
 68 -34 l 257,7,-1
 49 -34 l 257,4,-1
206 -34 m 257,8,-1
 206 260 l 257,9,-1
 225 260 l 257,10,-1
 225 -34 l 257,11,-1
 206 -34 l 257,8,-1
362 -34 m 257,12,-1
 362 260 l 257,13,-1
 382 260 l 257,14,-1
 382 -34 l 257,15,-1
 362 -34 l 257,12,-1
49 337 m 257,16,-1
 49 631 l 257,17,-1
 68 631 l 257,18,-1
 68 337 l 257,19,-1
 49 337 l 257,16,-1
206 337 m 257,20,-1
 206 631 l 257,21,-1
 225 631 l 257,22,-1
 225 337 l 257,23,-1
 206 337 l 257,20,-1
362 337 m 257,24,-1
 362 631 l 257,25,-1
 382 631 l 257,26,-1
 382 337 l 257,27,-1
 362 337 l 257,24,-1
49 708 m 257,28,-1
 49 1002 l 257,29,-1
 68 1002 l 257,30,-1
 68 708 l 257,31,-1
 49 708 l 257,28,-1
206 708 m 257,32,-1
 206 1002 l 257,33,-1
 225 1002 l 257,34,-1
 225 708 l 257,35,-1
 206 708 l 257,32,-1
EndSplineSet
EndChar

StartChar: u13403
Encoding: 78851 78851 12
GlifName: u13403
Width: 744
VWidth: 0
Flags: W
HStem: 0 21G<49 68 206 225 362 382 519 539 676 695>
VStem: 49 19<0 416> 206 19<0 416> 362 20<0 416> 519 20<0 416> 676 19<0 416>
LayerCount: 2
Fore
SplineSet
519 0 m 257,0,-1
 519 416 l 257,1,-1
 539 416 l 257,2,-1
 539 0 l 257,3,-1
 519 0 l 257,0,-1
49 0 m 257,4,-1
 49 416 l 257,5,-1
 68 416 l 257,6,-1
 68 0 l 257,7,-1
 49 0 l 257,4,-1
206 0 m 257,8,-1
 206 416 l 257,9,-1
 225 416 l 257,10,-1
 225 0 l 257,11,-1
 206 0 l 257,8,-1
362 0 m 257,12,-1
 362 416 l 257,13,-1
 382 416 l 257,14,-1
 382 0 l 257,15,-1
 362 0 l 257,12,-1
676 0 m 257,16,-1
 676 416 l 257,17,-1
 695 416 l 257,18,-1
 695 0 l 257,19,-1
 676 0 l 257,16,-1
EndSplineSet
EndChar

StartChar: u13404
Encoding: 78852 78852 13
GlifName: u13404
Width: 513
VWidth: 0
Flags: W
HStem: 198 19<49 464>
LayerCount: 2
Fore
SplineSet
49 198 m 257,0,-1
 49 217 l 257,1,-1
 464 217 l 257,2,-1
 464 198 l 257,3,-1
 49 198 l 257,0,-1
EndSplineSet
EndChar

StartChar: u13405
Encoding: 78853 78853 14
GlifName: u13405
Width: 513
VWidth: 0
Flags: W
HStem: 115 19<49 464> 281 19<49 464>
LayerCount: 2
Fore
SplineSet
49 281 m 257,0,-1
 49 300 l 257,1,-1
 464 300 l 257,2,-1
 464 281 l 257,3,-1
 49 281 l 257,0,-1
49 115 m 257,4,-1
 49 134 l 257,5,-1
 464 134 l 257,6,-1
 464 115 l 257,7,-1
 49 115 l 257,4,-1
EndSplineSet
EndChar

StartChar: u13406
Encoding: 78854 78854 15
GlifName: u13406
Width: 513
VWidth: 0
Flags: W
HStem: 32 19<49 464> 198 19<49 464> 364 19<49 464>
CounterMasks: 1 e0
LayerCount: 2
Fore
SplineSet
49 364 m 257,0,-1
 49 383 l 257,1,-1
 464 383 l 257,2,-1
 464 364 l 257,3,-1
 49 364 l 257,0,-1
49 32 m 257,4,-1
 49 51 l 257,5,-1
 464 51 l 257,6,-1
 464 32 l 257,7,-1
 49 32 l 257,4,-1
49 198 m 257,8,-1
 49 217 l 257,9,-1
 464 217 l 257,10,-1
 464 198 l 257,11,-1
 49 198 l 257,8,-1
EndSplineSet
EndChar

StartChar: u13407
Encoding: 78855 78855 16
GlifName: u13407
Width: 513
VWidth: 0
Flags: W
HStem: -51 19<49 464> 115 19<49 464> 281 19<49 464> 447 19<49 464>
LayerCount: 2
Fore
SplineSet
49 447 m 257,0,-1
 49 466 l 257,1,-1
 464 466 l 257,2,-1
 464 447 l 257,3,-1
 49 447 l 257,0,-1
49 -51 m 257,4,-1
 49 -32 l 257,5,-1
 464 -32 l 257,6,-1
 464 -51 l 257,7,-1
 49 -51 l 257,4,-1
49 115 m 257,8,-1
 49 134 l 257,9,-1
 464 134 l 257,10,-1
 464 115 l 257,11,-1
 49 115 l 257,8,-1
49 281 m 257,12,-1
 49 300 l 257,13,-1
 464 300 l 257,14,-1
 464 281 l 257,15,-1
 49 281 l 257,12,-1
EndSplineSet
EndChar

StartChar: u13408
Encoding: 78856 78856 17
GlifName: u13408
Width: 1006
VWidth: 0
Flags: W
HStem: 32 19<49 464> 115 19<542 958> 198 19<49 464> 281 19<542 958> 364 19<49 464>
LayerCount: 2
Fore
SplineSet
542 281 m 257,0,-1
 542 300 l 257,1,-1
 958 300 l 257,2,-1
 958 281 l 257,3,-1
 542 281 l 257,0,-1
49 32 m 257,4,-1
 49 51 l 257,5,-1
 464 51 l 257,6,-1
 464 32 l 257,7,-1
 49 32 l 257,4,-1
49 198 m 257,8,-1
 49 217 l 257,9,-1
 464 217 l 257,10,-1
 464 198 l 257,11,-1
 49 198 l 257,8,-1
49 364 m 257,12,-1
 49 383 l 257,13,-1
 464 383 l 257,14,-1
 464 364 l 257,15,-1
 49 364 l 257,12,-1
542 115 m 257,16,-1
 542 134 l 257,17,-1
 958 134 l 257,18,-1
 958 115 l 257,19,-1
 542 115 l 257,16,-1
EndSplineSet
EndChar

StartChar: u13409
Encoding: 78857 78857 18
GlifName: u13409
Width: 1006
VWidth: 0
Flags: W
HStem: 32 19<49 464 542 958> 198 19<49 464 542 958> 364 19<49 464 542 958>
CounterMasks: 1 e0
LayerCount: 2
Fore
SplineSet
542 364 m 257,0,-1
 542 383 l 257,1,-1
 958 383 l 257,2,-1
 958 364 l 257,3,-1
 542 364 l 257,0,-1
49 32 m 257,4,-1
 49 51 l 257,5,-1
 464 51 l 257,6,-1
 464 32 l 257,7,-1
 49 32 l 257,4,-1
49 198 m 257,8,-1
 49 217 l 257,9,-1
 464 217 l 257,10,-1
 464 198 l 257,11,-1
 49 198 l 257,8,-1
49 364 m 257,12,-1
 49 383 l 257,13,-1
 464 383 l 257,14,-1
 464 364 l 257,15,-1
 49 364 l 257,12,-1
542 32 m 257,16,-1
 542 51 l 257,17,-1
 958 51 l 257,18,-1
 958 32 l 257,19,-1
 542 32 l 257,16,-1
542 198 m 257,20,-1
 542 217 l 257,21,-1
 958 217 l 257,22,-1
 958 198 l 257,23,-1
 542 198 l 257,20,-1
EndSplineSet
EndChar

StartChar: u1340A
Encoding: 78858 78858 19
GlifName: u1340A_
Width: 1006
VWidth: 0
Flags: W
HStem: -51 19<49 464> 32 19<542 958> 115 19<49 464> 198 19<542 958> 281 19<49 464> 364 19<542 958> 447 19<49 464>
LayerCount: 2
Fore
SplineSet
542 364 m 257,0,-1
 542 383 l 257,1,-1
 958 383 l 257,2,-1
 958 364 l 257,3,-1
 542 364 l 257,0,-1
49 -51 m 257,4,-1
 49 -32 l 257,5,-1
 464 -32 l 257,6,-1
 464 -51 l 257,7,-1
 49 -51 l 257,4,-1
49 115 m 257,8,-1
 49 134 l 257,9,-1
 464 134 l 257,10,-1
 464 115 l 257,11,-1
 49 115 l 257,8,-1
49 281 m 257,12,-1
 49 300 l 257,13,-1
 464 300 l 257,14,-1
 464 281 l 257,15,-1
 49 281 l 257,12,-1
49 447 m 257,16,-1
 49 466 l 257,17,-1
 464 466 l 257,18,-1
 464 447 l 257,19,-1
 49 447 l 257,16,-1
542 32 m 257,20,-1
 542 51 l 257,21,-1
 958 51 l 257,22,-1
 958 32 l 257,23,-1
 542 32 l 257,20,-1
542 198 m 257,24,-1
 542 217 l 257,25,-1
 958 217 l 257,26,-1
 958 198 l 257,27,-1
 542 198 l 257,24,-1
EndSplineSet
EndChar

StartChar: u1340B
Encoding: 78859 78859 20
GlifName: u1340B_
Width: 1006
VWidth: 0
Flags: W
HStem: -51 19<49 464 542 958> 115 19<49 464 542 958> 281 19<49 464 542 958> 447 19<49 464 542 958>
LayerCount: 2
Fore
SplineSet
542 447 m 257,0,-1
 542 466 l 257,1,-1
 958 466 l 257,2,-1
 958 447 l 257,3,-1
 542 447 l 257,0,-1
49 -51 m 257,4,-1
 49 -32 l 257,5,-1
 464 -32 l 257,6,-1
 464 -51 l 257,7,-1
 49 -51 l 257,4,-1
49 115 m 257,8,-1
 49 134 l 257,9,-1
 464 134 l 257,10,-1
 464 115 l 257,11,-1
 49 115 l 257,8,-1
49 281 m 257,12,-1
 49 300 l 257,13,-1
 464 300 l 257,14,-1
 464 281 l 257,15,-1
 49 281 l 257,12,-1
542 -51 m 257,16,-1
 542 -32 l 257,17,-1
 958 -32 l 257,18,-1
 958 -51 l 257,19,-1
 542 -51 l 257,16,-1
49 447 m 257,20,-1
 49 466 l 257,21,-1
 464 466 l 257,22,-1
 464 447 l 257,23,-1
 49 447 l 257,20,-1
542 115 m 257,24,-1
 542 134 l 257,25,-1
 958 134 l 257,26,-1
 958 115 l 257,27,-1
 542 115 l 257,24,-1
542 281 m 257,28,-1
 542 300 l 257,29,-1
 958 300 l 257,30,-1
 958 281 l 257,31,-1
 542 281 l 257,28,-1
EndSplineSet
EndChar

StartChar: u1340C
Encoding: 78860 78860 21
GlifName: u1340C_
Width: 1500
VWidth: 0
Flags: W
HStem: 32 19<49 464 542 958 1035 1451> 198 19<49 464 542 958 1035 1451> 364 19<49 464 542 958 1035 1451>
CounterMasks: 1 e0
LayerCount: 2
Fore
SplineSet
1035 364 m 257,0,-1
 1035 383 l 257,1,-1
 1451 383 l 257,2,-1
 1451 364 l 257,3,-1
 1035 364 l 257,0,-1
49 32 m 257,4,-1
 49 51 l 257,5,-1
 464 51 l 257,6,-1
 464 32 l 257,7,-1
 49 32 l 257,4,-1
49 198 m 257,8,-1
 49 217 l 257,9,-1
 464 217 l 257,10,-1
 464 198 l 257,11,-1
 49 198 l 257,8,-1
49 364 m 257,12,-1
 49 383 l 257,13,-1
 464 383 l 257,14,-1
 464 364 l 257,15,-1
 49 364 l 257,12,-1
542 32 m 257,16,-1
 542 51 l 257,17,-1
 958 51 l 257,18,-1
 958 32 l 257,19,-1
 542 32 l 257,16,-1
542 198 m 257,20,-1
 542 217 l 257,21,-1
 958 217 l 257,22,-1
 958 198 l 257,23,-1
 542 198 l 257,20,-1
542 364 m 257,24,-1
 542 383 l 257,25,-1
 958 383 l 257,26,-1
 958 364 l 257,27,-1
 542 364 l 257,24,-1
1035 32 m 257,28,-1
 1035 51 l 257,29,-1
 1451 51 l 257,30,-1
 1451 32 l 257,31,-1
 1035 32 l 257,28,-1
1035 198 m 257,32,-1
 1035 217 l 257,33,-1
 1451 217 l 257,34,-1
 1451 198 l 257,35,-1
 1035 198 l 257,32,-1
EndSplineSet
EndChar

StartChar: uni200C
Encoding: 8204 8204 23
GlifName: uni200C_
Width: 0
VWidth: 0
LayerCount: 2
Fore
SplineSet
-21 -133 m 257,0,-1
 21 -133 l 257,1,-1
 21 628 l 257,2,-1
 -21 628 l 257,3,-1
 -21 -133 l 257,0,-1
EndSplineSet
EndChar

StartChar: uni200D
Encoding: 8205 8205 24
GlifName: uni200D_
Width: 0
VWidth: 0
LayerCount: 2
Fore
SplineSet
-21 -133 m 257,0,-1
 21 -133 l 257,1,-1
 21 535 l 257,2,-1
 83 473 l 257,3,-1
 109 500 l 257,4,-1
 27 582 l 257,5,-1
 109 663 l 257,6,-1
 83 690 l 257,7,-1
 0 607 l 257,8,-1
 -83 690 l 257,9,-1
 -109 663 l 257,10,-1
 -27 582 l 257,11,-1
 -109 500 l 257,12,-1
 -83 473 l 257,13,-1
 -21 535 l 257,14,-1
 -21 -133 l 257,0,-1
EndSplineSet
EndChar

StartChar: uni25CC
Encoding: 9676 9676 25
GlifName: uni25C_C_
Width: 1389
VWidth: 0
GlyphClass: 2
Flags: W
LayerCount: 2
Fore
SplineSet
126.611328125 353.5 m 128,-1,1
 126.611328125 365.926269531 126.611328125 365.926269531 135.398193359 374.713134766 c 128,-1,2
 144.185058594 383.5 144.185058594 383.5 156.611328125 383.5 c 128,-1,3
 169.037597656 383.5 169.037597656 383.5 177.824462891 374.713134766 c 128,-1,4
 186.611328125 365.926269531 186.611328125 365.926269531 186.611328125 353.5 c 128,-1,5
 186.611328125 341.073730469 186.611328125 341.073730469 177.824462891 332.286865234 c 128,-1,6
 169.037597656 323.5 169.037597656 323.5 156.611328125 323.5 c 128,-1,7
 144.185058594 323.5 144.185058594 323.5 135.398193359 332.286865234 c 128,-1,0
 126.611328125 341.073730469 126.611328125 341.073730469 126.611328125 353.5 c 128,-1,1
664.5 891.388671875 m 128,-1,9
 664.5 903.814941406 664.5 903.814941406 673.286865234 912.601806641 c 128,-1,10
 682.073730469 921.388671875 682.073730469 921.388671875 694.5 921.388671875 c 128,-1,11
 706.926269531 921.388671875 706.926269531 921.388671875 715.713134766 912.601806641 c 128,-1,12
 724.5 903.814941406 724.5 903.814941406 724.5 891.388671875 c 128,-1,13
 724.5 878.962402344 724.5 878.962402344 715.713134766 870.175537109 c 128,-1,14
 706.926269531 861.388671875 706.926269531 861.388671875 694.5 861.388671875 c 128,-1,15
 682.073730469 861.388671875 682.073730469 861.388671875 673.286865234 870.175537109 c 128,-1,8
 664.5 878.962402344 664.5 878.962402344 664.5 891.388671875 c 128,-1,9
664.5 -184.388671875 m 128,-1,17
 664.5 -171.962402344 664.5 -171.962402344 673.286865234 -163.175537109 c 128,-1,18
 682.073730469 -154.388671875 682.073730469 -154.388671875 694.5 -154.388671875 c 128,-1,19
 706.926269531 -154.388671875 706.926269531 -154.388671875 715.713134766 -163.175537109 c 128,-1,20
 724.5 -171.962402344 724.5 -171.962402344 724.5 -184.388671875 c 128,-1,21
 724.5 -196.814941406 724.5 -196.814941406 715.713134766 -205.601806641 c 128,-1,22
 706.926269531 -214.388671875 706.926269531 -214.388671875 694.5 -214.388671875 c 128,-1,23
 682.073730469 -214.388671875 682.073730469 -214.388671875 673.286865234 -205.601806641 c 128,-1,16
 664.5 -196.814941406 664.5 -196.814941406 664.5 -184.388671875 c 128,-1,17
1202.38867188 353.5 m 128,-1,25
 1202.38867188 365.926269531 1202.38867188 365.926269531 1211.17553711 374.713134766 c 128,-1,26
 1219.96240234 383.5 1219.96240234 383.5 1232.38867188 383.5 c 128,-1,27
 1244.81494141 383.5 1244.81494141 383.5 1253.60180664 374.713134766 c 128,-1,28
 1262.38867188 365.926269531 1262.38867188 365.926269531 1262.38867188 353.5 c 128,-1,29
 1262.38867188 341.073730469 1262.38867188 341.073730469 1253.60180664 332.286865234 c 128,-1,30
 1244.81494141 323.5 1244.81494141 323.5 1232.38867188 323.5 c 128,-1,31
 1219.96240234 323.5 1219.96240234 323.5 1211.17553711 332.286865234 c 128,-1,24
 1202.38867188 341.073730469 1202.38867188 341.073730469 1202.38867188 353.5 c 128,-1,25
144.939453125 492.715820312 m 128,-1,33
 144.939453125 505.142089844 144.939453125 505.142089844 153.726318359 513.928955078 c 128,-1,34
 162.513183594 522.715820312 162.513183594 522.715820312 174.939453125 522.715820312 c 128,-1,35
 187.365722656 522.715820312 187.365722656 522.715820312 196.152587891 513.928955078 c 128,-1,36
 204.939453125 505.142089844 204.939453125 505.142089844 204.939453125 492.715820312 c 128,-1,37
 204.939453125 480.289550781 204.939453125 480.289550781 196.152587891 471.502685547 c 128,-1,38
 187.365722656 462.715820312 187.365722656 462.715820312 174.939453125 462.715820312 c 128,-1,39
 162.513183594 462.715820312 162.513183594 462.715820312 153.726318359 471.502685547 c 128,-1,32
 144.939453125 480.289550781 144.939453125 480.289550781 144.939453125 492.715820312 c 128,-1,33
198.674804688 622.444335938 m 128,-1,41
 198.674804688 634.870605469 198.674804688 634.870605469 207.461669922 643.657470703 c 128,-1,42
 216.248535156 652.444335938 216.248535156 652.444335938 228.674804688 652.444335938 c 128,-1,43
 241.101074219 652.444335938 241.101074219 652.444335938 249.887939453 643.657470703 c 128,-1,44
 258.674804688 634.870605469 258.674804688 634.870605469 258.674804688 622.444335938 c 128,-1,45
 258.674804688 610.018066406 258.674804688 610.018066406 249.887939453 601.231201172 c 128,-1,46
 241.101074219 592.444335938 241.101074219 592.444335938 228.674804688 592.444335938 c 128,-1,47
 216.248535156 592.444335938 216.248535156 592.444335938 207.461669922 601.231201172 c 128,-1,40
 198.674804688 610.018066406 198.674804688 610.018066406 198.674804688 622.444335938 c 128,-1,41
284.155273438 733.844726562 m 128,-1,49
 284.155273438 746.270996094 284.155273438 746.270996094 292.942138672 755.057861328 c 128,-1,50
 301.729003906 763.844726562 301.729003906 763.844726562 314.155273438 763.844726562 c 128,-1,51
 326.581542969 763.844726562 326.581542969 763.844726562 335.368408203 755.057861328 c 128,-1,52
 344.155273438 746.270996094 344.155273438 746.270996094 344.155273438 733.844726562 c 128,-1,53
 344.155273438 721.418457031 344.155273438 721.418457031 335.368408203 712.631591797 c 128,-1,54
 326.581542969 703.844726562 326.581542969 703.844726562 314.155273438 703.844726562 c 128,-1,55
 301.729003906 703.844726562 301.729003906 703.844726562 292.942138672 712.631591797 c 128,-1,48
 284.155273438 721.418457031 284.155273438 721.418457031 284.155273438 733.844726562 c 128,-1,49
395.555664062 819.325195312 m 128,-1,57
 395.555664062 831.751464844 395.555664062 831.751464844 404.342529297 840.538330078 c 128,-1,58
 413.129394531 849.325195312 413.129394531 849.325195312 425.555664062 849.325195312 c 128,-1,59
 437.981933594 849.325195312 437.981933594 849.325195312 446.768798828 840.538330078 c 128,-1,60
 455.555664062 831.751464844 455.555664062 831.751464844 455.555664062 819.325195312 c 128,-1,61
 455.555664062 806.898925781 455.555664062 806.898925781 446.768798828 798.112060547 c 128,-1,62
 437.981933594 789.325195312 437.981933594 789.325195312 425.555664062 789.325195312 c 128,-1,63
 413.129394531 789.325195312 413.129394531 789.325195312 404.342529297 798.112060547 c 128,-1,56
 395.555664062 806.898925781 395.555664062 806.898925781 395.555664062 819.325195312 c 128,-1,57
525.284179688 873.060546875 m 128,-1,65
 525.284179688 885.486816406 525.284179688 885.486816406 534.071044922 894.273681641 c 128,-1,66
 542.857910156 903.060546875 542.857910156 903.060546875 555.284179688 903.060546875 c 128,-1,67
 567.710449219 903.060546875 567.710449219 903.060546875 576.497314453 894.273681641 c 128,-1,68
 585.284179688 885.486816406 585.284179688 885.486816406 585.284179688 873.060546875 c 128,-1,69
 585.284179688 860.634277344 585.284179688 860.634277344 576.497314453 851.847412109 c 128,-1,70
 567.710449219 843.060546875 567.710449219 843.060546875 555.284179688 843.060546875 c 128,-1,71
 542.857910156 843.060546875 542.857910156 843.060546875 534.071044922 851.847412109 c 128,-1,64
 525.284179688 860.634277344 525.284179688 860.634277344 525.284179688 873.060546875 c 128,-1,65
803.715820312 873.060546875 m 128,-1,73
 803.715820312 885.486816406 803.715820312 885.486816406 812.502685547 894.273681641 c 128,-1,74
 821.289550781 903.060546875 821.289550781 903.060546875 833.715820312 903.060546875 c 128,-1,75
 846.142089844 903.060546875 846.142089844 903.060546875 854.928955078 894.273681641 c 128,-1,76
 863.715820312 885.486816406 863.715820312 885.486816406 863.715820312 873.060546875 c 128,-1,77
 863.715820312 860.634277344 863.715820312 860.634277344 854.928955078 851.847412109 c 128,-1,78
 846.142089844 843.060546875 846.142089844 843.060546875 833.715820312 843.060546875 c 128,-1,79
 821.289550781 843.060546875 821.289550781 843.060546875 812.502685547 851.847412109 c 128,-1,72
 803.715820312 860.634277344 803.715820312 860.634277344 803.715820312 873.060546875 c 128,-1,73
933.444335938 819.325195312 m 128,-1,81
 933.444335938 831.751464844 933.444335938 831.751464844 942.231201172 840.538330078 c 128,-1,82
 951.018066406 849.325195312 951.018066406 849.325195312 963.444335938 849.325195312 c 128,-1,83
 975.870605469 849.325195312 975.870605469 849.325195312 984.657470703 840.538330078 c 128,-1,84
 993.444335938 831.751464844 993.444335938 831.751464844 993.444335938 819.325195312 c 128,-1,85
 993.444335938 806.898925781 993.444335938 806.898925781 984.657470703 798.112060547 c 128,-1,86
 975.870605469 789.325195312 975.870605469 789.325195312 963.444335938 789.325195312 c 128,-1,87
 951.018066406 789.325195312 951.018066406 789.325195312 942.231201172 798.112060547 c 128,-1,80
 933.444335938 806.898925781 933.444335938 806.898925781 933.444335938 819.325195312 c 128,-1,81
1044.84472656 733.844726562 m 128,-1,89
 1044.84472656 746.270996094 1044.84472656 746.270996094 1053.6315918 755.057861328 c 128,-1,90
 1062.41845703 763.844726562 1062.41845703 763.844726562 1074.84472656 763.844726562 c 128,-1,91
 1087.27099609 763.844726562 1087.27099609 763.844726562 1096.05786133 755.057861328 c 128,-1,92
 1104.84472656 746.270996094 1104.84472656 746.270996094 1104.84472656 733.844726562 c 128,-1,93
 1104.84472656 721.418457031 1104.84472656 721.418457031 1096.05786133 712.631591797 c 128,-1,94
 1087.27099609 703.844726562 1087.27099609 703.844726562 1074.84472656 703.844726562 c 128,-1,95
 1062.41845703 703.844726562 1062.41845703 703.844726562 1053.6315918 712.631591797 c 128,-1,88
 1044.84472656 721.418457031 1044.84472656 721.418457031 1044.84472656 733.844726562 c 128,-1,89
1130.32519531 622.444335938 m 128,-1,97
 1130.32519531 634.870605469 1130.32519531 634.870605469 1139.11206055 643.657470703 c 128,-1,98
 1147.89892578 652.444335938 1147.89892578 652.444335938 1160.32519531 652.444335938 c 128,-1,99
 1172.75146484 652.444335938 1172.75146484 652.444335938 1181.53833008 643.657470703 c 128,-1,100
 1190.32519531 634.870605469 1190.32519531 634.870605469 1190.32519531 622.444335938 c 128,-1,101
 1190.32519531 610.018066406 1190.32519531 610.018066406 1181.53833008 601.231201172 c 128,-1,102
 1172.75146484 592.444335938 1172.75146484 592.444335938 1160.32519531 592.444335938 c 128,-1,103
 1147.89892578 592.444335938 1147.89892578 592.444335938 1139.11206055 601.231201172 c 128,-1,96
 1130.32519531 610.018066406 1130.32519531 610.018066406 1130.32519531 622.444335938 c 128,-1,97
1184.06054688 492.715820312 m 128,-1,105
 1184.06054688 505.142089844 1184.06054688 505.142089844 1192.84741211 513.928955078 c 128,-1,106
 1201.63427734 522.715820312 1201.63427734 522.715820312 1214.06054688 522.715820312 c 128,-1,107
 1226.48738019 522.715820312 1226.48738019 522.715820312 1235.27396353 513.929039399 c 128,-1,108
 1244.06054688 505.142258485 1244.06054688 505.142258485 1244.06054688 492.715820312 c 128,-1,109
 1244.06054688 480.28938214 1244.06054688 480.28938214 1235.27396353 471.502601226 c 128,-1,110
 1226.48738019 462.715820312 1226.48738019 462.715820312 1214.06054688 462.715820312 c 128,-1,111
 1201.63427734 462.715820312 1201.63427734 462.715820312 1192.84741211 471.502685547 c 128,-1,104
 1184.06054688 480.289550781 1184.06054688 480.289550781 1184.06054688 492.715820312 c 128,-1,105
1184.06054688 214.284179688 m 128,-1,113
 1184.06054688 226.710449219 1184.06054688 226.710449219 1192.84741211 235.497314453 c 128,-1,114
 1201.63427734 244.284179688 1201.63427734 244.284179688 1214.06054688 244.284179688 c 128,-1,115
 1226.48681641 244.284179688 1226.48681641 244.284179688 1235.27368164 235.497314453 c 128,-1,116
 1244.06054688 226.710449219 1244.06054688 226.710449219 1244.06054688 214.284179688 c 128,-1,117
 1244.06054688 201.857910156 1244.06054688 201.857910156 1235.27368164 193.071044922 c 128,-1,118
 1226.48681641 184.284179688 1226.48681641 184.284179688 1214.06054688 184.284179688 c 128,-1,119
 1201.63427734 184.284179688 1201.63427734 184.284179688 1192.84741211 193.071044922 c 128,-1,112
 1184.06054688 201.857910156 1184.06054688 201.857910156 1184.06054688 214.284179688 c 128,-1,113
1130.32519531 84.5556640625 m 128,-1,121
 1130.32519531 96.9819335938 1130.32519531 96.9819335938 1139.11206055 105.768798828 c 128,-1,122
 1147.89892578 114.555664062 1147.89892578 114.555664062 1160.32519531 114.555664062 c 128,-1,123
 1172.75146484 114.555664062 1172.75146484 114.555664062 1181.53833008 105.768798828 c 128,-1,124
 1190.32519531 96.9819335938 1190.32519531 96.9819335938 1190.32519531 84.5556640625 c 128,-1,125
 1190.32519531 72.1293945312 1190.32519531 72.1293945312 1181.53833008 63.3425292969 c 128,-1,126
 1172.75146484 54.5556640625 1172.75146484 54.5556640625 1160.32519531 54.5556640625 c 128,-1,127
 1147.89892578 54.5556640625 1147.89892578 54.5556640625 1139.11206055 63.3425292969 c 128,-1,120
 1130.32519531 72.1293945312 1130.32519531 72.1293945312 1130.32519531 84.5556640625 c 128,-1,121
1044.84472656 -26.8447265625 m 128,-1,129
 1044.84472656 -14.4184570312 1044.84472656 -14.4184570312 1053.6315918 -5.63159179688 c 128,-1,130
 1062.41845703 3.1552734375 1062.41845703 3.1552734375 1074.84472656 3.1552734375 c 128,-1,131
 1087.27099609 3.1552734375 1087.27099609 3.1552734375 1096.05786133 -5.63159179688 c 128,-1,132
 1104.84472656 -14.4184570312 1104.84472656 -14.4184570312 1104.84472656 -26.8447265625 c 128,-1,133
 1104.84472656 -39.2709960938 1104.84472656 -39.2709960938 1096.05786133 -48.0578613281 c 128,-1,134
 1087.27099609 -56.8447265625 1087.27099609 -56.8447265625 1074.84472656 -56.8447265625 c 128,-1,135
 1062.41845703 -56.8447265625 1062.41845703 -56.8447265625 1053.6315918 -48.0578613281 c 128,-1,128
 1044.84472656 -39.2709960938 1044.84472656 -39.2709960938 1044.84472656 -26.8447265625 c 128,-1,129
933.444335938 -112.325195312 m 128,-1,137
 933.444335938 -99.8989257812 933.444335938 -99.8989257812 942.231201172 -91.1120605469 c 128,-1,138
 951.018066406 -82.3251953125 951.018066406 -82.3251953125 963.444335938 -82.3251953125 c 128,-1,139
 975.870605469 -82.3251953125 975.870605469 -82.3251953125 984.657470703 -91.1120605469 c 128,-1,140
 993.444335938 -99.8989257812 993.444335938 -99.8989257812 993.444335938 -112.325195312 c 128,-1,141
 993.444335938 -124.751464844 993.444335938 -124.751464844 984.657470703 -133.538330078 c 128,-1,142
 975.870605469 -142.325195312 975.870605469 -142.325195312 963.444335938 -142.325195312 c 128,-1,143
 951.018066406 -142.325195312 951.018066406 -142.325195312 942.231201172 -133.538330078 c 128,-1,136
 933.444335938 -124.751464844 933.444335938 -124.751464844 933.444335938 -112.325195312 c 128,-1,137
803.715820312 -166.060546875 m 128,-1,145
 803.715820312 -153.634277344 803.715820312 -153.634277344 812.502685547 -144.847412109 c 128,-1,146
 821.289550781 -136.060546875 821.289550781 -136.060546875 833.715820312 -136.060546875 c 128,-1,147
 846.142089844 -136.060546875 846.142089844 -136.060546875 854.928955078 -144.847412109 c 128,-1,148
 863.715820312 -153.634277344 863.715820312 -153.634277344 863.715820312 -166.060546875 c 128,-1,149
 863.715820312 -178.48738019 863.715820312 -178.48738019 854.929039399 -187.273963533 c 128,-1,150
 846.142258485 -196.060546875 846.142258485 -196.060546875 833.715820312 -196.060546875 c 128,-1,151
 821.28938214 -196.060546875 821.28938214 -196.060546875 812.502601226 -187.273963533 c 128,-1,144
 803.715820312 -178.48738019 803.715820312 -178.48738019 803.715820312 -166.060546875 c 128,-1,145
525.284179688 -166.060546875 m 128,-1,153
 525.284179688 -153.634277344 525.284179688 -153.634277344 534.071044922 -144.847412109 c 128,-1,154
 542.857910156 -136.060546875 542.857910156 -136.060546875 555.284179688 -136.060546875 c 128,-1,155
 567.710449219 -136.060546875 567.710449219 -136.060546875 576.497314453 -144.847412109 c 128,-1,156
 585.284179688 -153.634277344 585.284179688 -153.634277344 585.284179688 -166.060546875 c 128,-1,157
 585.284179688 -178.486816406 585.284179688 -178.486816406 576.497314453 -187.273681641 c 128,-1,158
 567.710449219 -196.060546875 567.710449219 -196.060546875 555.284179688 -196.060546875 c 128,-1,159
 542.857910156 -196.060546875 542.857910156 -196.060546875 534.071044922 -187.273681641 c 128,-1,152
 525.284179688 -178.486816406 525.284179688 -178.486816406 525.284179688 -166.060546875 c 128,-1,153
395.555664062 -112.325195312 m 128,-1,161
 395.555664062 -99.8989257812 395.555664062 -99.8989257812 404.342529297 -91.1120605469 c 128,-1,162
 413.129394531 -82.3251953125 413.129394531 -82.3251953125 425.555664062 -82.3251953125 c 128,-1,163
 437.981933594 -82.3251953125 437.981933594 -82.3251953125 446.768798828 -91.1120605469 c 128,-1,164
 455.555664062 -99.8989257812 455.555664062 -99.8989257812 455.555664062 -112.325195312 c 128,-1,165
 455.555664062 -124.751464844 455.555664062 -124.751464844 446.768798828 -133.538330078 c 128,-1,166
 437.981933594 -142.325195312 437.981933594 -142.325195312 425.555664062 -142.325195312 c 128,-1,167
 413.129394531 -142.325195312 413.129394531 -142.325195312 404.342529297 -133.538330078 c 128,-1,160
 395.555664062 -124.751464844 395.555664062 -124.751464844 395.555664062 -112.325195312 c 128,-1,161
284.155273438 -26.8447265625 m 128,-1,169
 284.155273438 -14.4184570312 284.155273438 -14.4184570312 292.942138672 -5.63159179688 c 128,-1,170
 301.729003906 3.1552734375 301.729003906 3.1552734375 314.155273438 3.1552734375 c 128,-1,171
 326.581542969 3.1552734375 326.581542969 3.1552734375 335.368408203 -5.63159179688 c 128,-1,172
 344.155273438 -14.4184570312 344.155273438 -14.4184570312 344.155273438 -26.8447265625 c 128,-1,173
 344.155273438 -39.2709960938 344.155273438 -39.2709960938 335.368408203 -48.0578613281 c 128,-1,174
 326.581542969 -56.8447265625 326.581542969 -56.8447265625 314.155273438 -56.8447265625 c 128,-1,175
 301.729003906 -56.8447265625 301.729003906 -56.8447265625 292.942138672 -48.0578613281 c 128,-1,168
 284.155273438 -39.2709960938 284.155273438 -39.2709960938 284.155273438 -26.8447265625 c 128,-1,169
198.674804688 84.5556640625 m 128,-1,177
 198.674804688 96.9819335938 198.674804688 96.9819335938 207.461669922 105.768798828 c 128,-1,178
 216.248535156 114.555664062 216.248535156 114.555664062 228.674804688 114.555664062 c 128,-1,179
 241.101074219 114.555664062 241.101074219 114.555664062 249.887939453 105.768798828 c 128,-1,180
 258.674804688 96.9819335938 258.674804688 96.9819335938 258.674804688 84.5556640625 c 128,-1,181
 258.674804688 72.1293945312 258.674804688 72.1293945312 249.887939453 63.3425292969 c 128,-1,182
 241.101074219 54.5556640625 241.101074219 54.5556640625 228.674804688 54.5556640625 c 128,-1,183
 216.248535156 54.5556640625 216.248535156 54.5556640625 207.461669922 63.3425292969 c 128,-1,176
 198.674804688 72.1293945312 198.674804688 72.1293945312 198.674804688 84.5556640625 c 128,-1,177
144.939453125 214.284179688 m 128,-1,185
 144.939453125 226.710449219 144.939453125 226.710449219 153.726318359 235.497314453 c 128,-1,186
 162.513183594 244.284179688 162.513183594 244.284179688 174.939453125 244.284179688 c 128,-1,187
 187.365722656 244.284179688 187.365722656 244.284179688 196.152587891 235.497314453 c 128,-1,188
 204.939453125 226.710449219 204.939453125 226.710449219 204.939453125 214.284179688 c 128,-1,189
 204.939453125 201.857910156 204.939453125 201.857910156 196.152587891 193.071044922 c 128,-1,190
 187.365722656 184.284179688 187.365722656 184.284179688 174.939453125 184.284179688 c 128,-1,191
 162.513183594 184.284179688 162.513183594 184.284179688 153.726318359 193.071044922 c 128,-1,184
 144.939453125 201.857910156 144.939453125 201.857910156 144.939453125 214.284179688 c 128,-1,185
EndSplineSet
EndChar

StartChar: u13455
Encoding: 78933 78933 26
Width: 0
Flags: W
LayerCount: 2
Fore
SplineSet
-1237 967 m 1,0,-1
 -1209 967 l 1,1,-1
 -1340 836 l 1,2,-1
 -1340 864 l 1,3,-1
 -1237 967 l 1,0,-1
-1047 967 m 1,4,-1
 -1019 967 l 1,5,-1
 -1340 646 l 1,6,-1
 -1340 674 l 1,7,-1
 -1047 967 l 1,4,-1
-857 967 m 1,8,-1
 -829 967 l 1,9,-1
 -1340 456 l 1,10,-1
 -1340 484 l 1,11,-1
 -857 967 l 1,8,-1
-667 967 m 1,12,-1
 -639 967 l 1,13,-1
 -1340 266 l 1,14,-1
 -1340 294 l 1,15,-1
 -667 967 l 1,12,-1
-477 967 m 1,16,-1
 -449 967 l 1,17,-1
 -1340 76 l 1,18,-1
 -1340 104 l 1,19,-1
 -477 967 l 1,16,-1
-287 967 m 1,20,-1
 -259 967 l 1,21,-1
 -1340 -114 l 1,22,-1
 -1340 -86 l 1,23,-1
 -287 967 l 1,20,-1
-97 967 m 1,24,-1
 -69 967 l 1,25,-1
 -1296 -260 l 1,26,-1
 -1324 -260 l 1,27,-1
 -97 967 l 1,24,-1
-49 825 m 1,28,-1
 -49 797 l 1,29,-1
 -1106 -260 l 1,30,-1
 -1134 -260 l 1,31,-1
 -49 825 l 1,28,-1
-49 635 m 1,32,-1
 -49 607 l 1,33,-1
 -916 -260 l 1,34,-1
 -944 -260 l 1,35,-1
 -49 635 l 1,32,-1
-49 445 m 1,36,-1
 -49 417 l 1,37,-1
 -726 -260 l 1,38,-1
 -754 -260 l 1,39,-1
 -49 445 l 1,36,-1
-49 255 m 1,40,-1
 -49 227 l 1,41,-1
 -536 -260 l 1,42,-1
 -564 -260 l 1,43,-1
 -49 255 l 1,40,-1
-49 65 m 1,44,-1
 -49 37 l 1,45,-1
 -346 -260 l 1,46,-1
 -374 -260 l 1,47,-1
 -49 65 l 1,44,-1
-49 -125 m 1,48,-1
 -49 -153 l 1,49,-1
 -156 -260 l 1,50,-1
 -184 -260 l 1,51,-1
 -49 -125 l 1,48,-1
EndSplineSet
EndChar
